HIERARCHY
ROOT Hips
{
	OFFSET 0.000000 0.000000 0.000000
	CHANNELS 6 Xposition Yposition Zposition Zrotation Yrotation Xrotation 
	JOINT LHipJoint
	{
		OFFSET 0.000000 0.000000 0.000000
		CHANNELS 3 Zrotation Yrotation Xrotation
		JOINT LeftUpLeg
		{
			OFFSET 1.363060 -1.794630 0.839290
			CHANNELS 3 Zrotation Yrotation Xrotation
			JOINT LeftLeg
			{
				OFFSET 2.448110 -6.726130 0.000000
				CHANNELS 3 Zrotation Yrotation Xrotation
				JOINT LeftFoot
				{
					OFFSET 2.562200 -7.039590 0.000000
					CHANNELS 3 Zrotation Yrotation Xrotation
					JOINT LeftToeBase
					{
						OFFSET 0.157640 -0.433110 2.322550
						CHANNELS 3 Zrotation Yrotation Xrotation
						End Site
						{
							OFFSET 0.000000 0.000000 0.000000
						}
					}
				}
			}
		}
	}
	JOINT RHipJoint
	{
		OFFSET 0.000000 0.000000 0.000000
		CHANNELS 3 Zrotation Yrotation Xrotation
		JOINT RightUpLeg
		{
			OFFSET -1.305520 -1.794630 0.839290
			CHANNELS 3 Zrotation Yrotation Xrotation
			JOINT RightLeg
			{
				OFFSET -2.542530 -6.985550 0.000000
				CHANNELS 3 Zrotation Yrotation Xrotation
				JOINT RightFoot
				{
					OFFSET -2.568260 -7.056230 0.000000
					CHANNELS 3 Zrotation Yrotation Xrotation
					JOINT RightToeBase
					{
						OFFSET -0.164730 -0.452590 2.363150
						CHANNELS 3 Zrotation Yrotation Xrotation
						End Site
						{
							OFFSET 0.000000 0.000000 0.000000
						}
					}
				}
			}
		}
	}
	JOINT LowerBack
	{
		OFFSET 0.000000 0.000000 0.000000
		CHANNELS 3 Zrotation Yrotation Xrotation
		JOINT Spine
		{
			OFFSET 0.028270 2.035590 -0.193380
			CHANNELS 3 Zrotation Yrotation Xrotation
			JOINT Spine1
			{
				OFFSET 0.056720 2.048850 -0.042750
				CHANNELS 3 Zrotation Yrotation Xrotation
				JOINT Neck
				{
					OFFSET 0.000000 0.000000 0.000000
					CHANNELS 3 Zrotation Yrotation Xrotation
					JOINT Neck1
					{
						OFFSET -0.054170 1.746240 0.172020
						CHANNELS 3 Zrotation Yrotation Xrotation
						JOINT Head
						{
							OFFSET 0.104070 1.761360 -0.123970
							CHANNELS 3 Zrotation Yrotation Xrotation
							End Site
							{
								OFFSET 0.000000 0.000000 0.000000
							}
						}
					}
				}
				JOINT LeftShoulder
				{
					OFFSET 0.000000 0.000000 0.000000
					CHANNELS 3 Zrotation Yrotation Xrotation
					JOINT LeftArm
					{
						OFFSET 3.362410 1.200890 -0.311210
						CHANNELS 3 Zrotation Yrotation Xrotation
						JOINT LeftForeArm
						{
							OFFSET 4.983000 -0.000000 -0.000000
							CHANNELS 3 Zrotation Yrotation Xrotation
							JOINT LeftHand
							{
								OFFSET 3.483560 -0.000000 -0.000000
								CHANNELS 3 Zrotation Yrotation Xrotation
								JOINT LeftFingerBase
								{
									OFFSET 0.000000 0.000000 0.000000
									CHANNELS 3 Zrotation Yrotation Xrotation
									JOINT LeftHandIndex1
									{
										OFFSET 0.715260 -0.000000 -0.000000
										CHANNELS 3 Zrotation Yrotation Xrotation
										End Site
										{
											OFFSET 0.000000 0.000000 0.000000
										}
									}
								}
								JOINT LThumb
								{
									OFFSET 0.000000 0.000000 0.000000
									CHANNELS 3 Zrotation Yrotation Xrotation
									End Site
									{
										OFFSET 0.000000 0.000000 0.000000
									}
								}
							}
						}
					}
				}
				JOINT RightShoulder
				{
					OFFSET 0.000000 0.000000 0.000000
					CHANNELS 3 Zrotation Yrotation Xrotation
					JOINT RightArm
					{
						OFFSET -3.136600 1.374050 -0.404650
						CHANNELS 3 Zrotation Yrotation Xrotation
						JOINT RightForeArm
						{
							OFFSET -5.241900 -0.000000 -0.000000
							CHANNELS 3 Zrotation Yrotation Xrotation
							JOINT RightHand
							{
								OFFSET -3.444170 -0.000000 -0.000000
								CHANNELS 3 Zrotation Yrotation Xrotation
								JOINT RightFingerBase
								{
									OFFSET 0.000000 0.000000 0.000000
									CHANNELS 3 Zrotation Yrotation Xrotation
									JOINT RightHandIndex1
									{
										OFFSET -0.622530 -0.000000 -0.000000
										CHANNELS 3 Zrotation Yrotation Xrotation
										End Site
										{
											OFFSET 0.000000 0.000000 0.000000
										}
									}
								}
								JOINT RThumb
								{
									OFFSET 0.000000 0.000000 0.000000
									CHANNELS 3 Zrotation Yrotation Xrotation
									End Site
									{
										OFFSET 0.000000 0.000000 0.000000
									}
								}
							}
						}
					}
				}
			}
		}
	}
}
MOTION
Frames: 6
Frame Time: 0.008333
16.586937 16.344294 16.002402 112.034577 -84.136878 -103.727736 -1.416247 -13.773181 -13.383447 -7.070254 6.447655 -8.837883 1.650053 11.112522 2.053686 -0.582254 2.396026 -1.234194 2.889525 -1.108061 -3.343716 -4.031365 9.568657 -13.499892 6.193954 -3.314192 -4.113129 -8.531507 -20.398720 29.853542 -1.307174 -6.463640 -5.335660 -1.024419 -4.437877 -22.053675 4.345463 -0.914288 29.010675 -0.490322 0.871573 -10.212114 -7.195138 0.095695 -6.144002 -2.178134 -6.412516 -6.724082 -7.598431 -6.264880 17.277660 45.397254 -48.960332 6.045231 12.427570 -2.321026 1.312656 -84.000814 -8.484827 -10.089025 -12.058113 -9.766529 0.352234 9.704550 -0.140195 -0.138817 -0.000001 -0.000000 0.000000 -0.000000 0.000000 0.000000 0.000000 0.000000 0.000000 -9.309491 5.464240 5.597591 73.443260 27.176564 4.231902 17.463737 33.348054 6.946238 -17.410778 3.076118 -0.299604 -0.000001 -0.000001 -0.000000 0.000000 -0.000000 0.000000 0.000000 0.000000 0.000000 
16.696396 16.345345 15.885435 117.093319 -84.122231 -108.808825 -1.553959 -13.879885 -13.473810 -6.406025 6.269630 -8.362739 1.992439 11.253695 1.416971 0.003022 2.046622 -1.779234 2.773588 -1.177828 -3.123931 -4.299409 9.533565 -13.764235 6.890250 -4.455703 -3.661766 -8.026249 -20.838766 27.555153 -1.349660 -5.371690 -5.675140 -0.845296 -4.781544 -21.791298 4.248136 -0.916477 29.288456 -0.439075 0.799147 -10.178237 -7.357140 0.013972 -6.319469 -1.937781 -6.304857 -6.593423 -7.517996 -6.224866 17.100425 45.093049 -48.608981 6.173181 12.858683 -2.366064 1.341120 -84.047437 -7.980859 -10.540301 -11.954008 -9.523969 0.180207 10.120929 -0.088644 -0.148201 -0.000001 -0.000000 0.000000 0.000000 0.000000 0.000000 -0.000000 -0.000000 0.000000 -9.146766 5.568958 5.648753 73.644395 27.457437 4.397506 17.531348 33.273321 6.850848 -17.279630 2.908902 -0.292223 -0.000001 -0.000001 -0.000000 0.000000 -0.000000 -0.000000 -0.000000 0.000000 0.000000 
16.799249 16.346997 15.766967 120.334435 -84.163812 -111.933949 -1.642093 -14.102605 -13.598809 -5.792773 6.035229 -7.992902 2.363289 11.140036 0.868222 -0.029150 2.026312 -2.467734 3.184397 -1.474319 -3.479223 -4.749489 9.518272 -13.855233 7.749593 -6.358106 -3.727355 -7.197677 -20.313727 25.409573 -1.978397 -4.681980 -6.008886 -1.333814 -3.358739 -20.491977 4.205190 -1.011161 29.343037 -0.367221 0.564725 -10.150243 -7.318907 -0.190066 -6.212962 -1.835111 -6.239363 -6.722443 -7.497545 -6.201809 16.909486 44.315169 -48.522039 6.727562 13.032699 -1.990488 1.584103 -84.030508 -7.876521 -10.995515 -11.858706 -9.247943 -0.023651 10.026339 -0.053680 -0.148548 -0.000001 -0.000000 0.000000 -0.000000 0.000000 0.000000 -0.000000 -0.000000 0.000000 -9.117477 5.808049 5.468402 73.832127 27.764112 4.701317 17.509656 33.222463 6.920017 -17.160254 2.975222 -0.288101 -0.000001 -0.000001 -0.000000 0.000000 -0.000000 0.000000 0.000000 -0.000000 0.000000 
16.903153 16.347598 15.654805 125.313632 -83.995204 -116.851446 -1.616674 -14.096579 -13.689972 -5.421106 5.457413 -7.431966 2.677843 11.504683 0.289802 0.285570 1.845091 -2.732165 2.825644 -1.858286 -2.673697 -5.026991 9.675241 -13.975379 8.490642 -7.570100 -4.084372 -6.984010 -20.151243 24.332778 -2.613394 -3.623127 -6.715623 -1.587289 -2.297597 -18.808788 4.075491 -0.981138 29.509622 -0.289118 0.401815 -10.117640 -6.927281 -0.351614 -6.212669 -2.069022 -6.149071 -6.753611 -7.369755 -6.130573 16.734051 44.598801 -47.866363 5.901610 12.938608 -1.850125 1.624101 -84.090477 -7.677221 -11.258031 -11.753827 -8.964006 -0.146957 10.218827 -0.048054 -0.151807 -0.000001 -0.000000 0.000000 -0.000000 -0.000000 0.000000 -0.000000 -0.000000 0.000000 -9.471715 5.991070 5.335158 73.906247 28.024115 5.208454 17.438631 33.308242 6.696103 -17.282758 2.645346 -0.289424 -0.000001 -0.000001 -0.000000 0.000000 0.000000 0.000000 0.000000 0.000000 0.000000 
17.001351 16.353453 15.532733 129.642923 -83.822340 -120.967820 -1.472494 -13.915771 -13.677186 -5.229197 4.932707 -7.233067 2.952450 11.577338 -0.101198 -0.212203 1.789023 -2.844769 2.889822 -1.969685 -2.680035 -5.084927 9.946311 -14.057195 9.094023 -8.441025 -4.723954 -7.010233 -20.180518 23.716434 -2.575890 -2.586563 -7.770356 -1.770734 -1.658201 -18.175677 3.829213 -0.962794 29.537358 -0.170828 0.237252 -10.137338 -6.678209 -0.490263 -6.275522 -2.064986 -6.088476 -6.727140 -7.268457 -6.093535 16.631647 44.332724 -47.610192 6.164685 12.985085 -1.823131 1.622838 -84.056492 -7.430255 -11.925819 -11.704256 -8.565598 -0.040588 10.061330 -0.261060 -0.138330 -0.000001 -0.000000 0.000000 -0.000000 0.000000 0.000000 0.000000 -0.000000 0.000000 -9.444478 6.109727 5.261674 73.907203 28.228495 5.407436 17.548579 33.297204 7.177816 -16.902408 3.259801 -0.279748 -0.000001 -0.000001 -0.000000 0.000000 0.000000 0.000000 -0.000000 -0.000000 0.000000 
17.101201 16.364264 15.428078 134.497710 -83.424547 -125.583995 -1.612747 -13.923403 -13.654836 -4.773545 4.440384 -6.936615 3.250501 11.869824 -0.553253 -0.837495 1.816566 -3.030695 3.548884 -1.470903 -3.998060 -5.217307 10.103882 -14.138817 9.829217 -10.707916 -6.014361 -6.865914 -18.028634 23.599283 -3.213468 -2.005132 -8.685603 -1.956582 -0.996753 -17.556543 3.663054 -0.951012 29.610339 -0.129519 0.173134 -10.176686 -6.652547 -0.509911 -6.115989 -1.971411 -6.032503 -6.949623 -7.177373 -6.061603 16.552862 44.070706 -47.235669 6.272137 13.034217 -1.726978 1.724522 -84.017918 -7.575472 -12.317069 -11.613060 -8.204498 -0.391312 10.173272 -0.065666 -0.150204 -0.000001 -0.000000 0.000000 0.000000 0.000000 0.000000 -0.000000 -0.000000 0.000000 -9.351730 5.959952 5.215132 73.833627 28.706555 5.736742 17.609311 33.325870 6.939469 -16.484202 2.697582 -0.259262 -0.000001 -0.000001 -0.000000 0.000000 0.000000 -0.000000 0.000000 -0.000000 -0.000000 
